<mxfile host="app.diagrams.net" modified="2022-07-08T12:20:30.767Z" agent="5.0 (Macintosh; Intel Mac OS X 10_15_7) AppleWebKit/537.36 (KHTML, like Gecko) Chrome/102.0.0.0 Safari/537.36" etag="z0OUsAU2WGTZf2oqDEFQ" version="18.1.3" type="github">
  <diagram id="vyJzyLChlgJRIfmmdrbX" name="Page-1">
    <mxGraphModel dx="999" dy="1771" grid="1" gridSize="10" guides="1" tooltips="1" connect="1" arrows="1" fold="1" page="1" pageScale="1" pageWidth="827" pageHeight="1169" math="0" shadow="0">
      <root>
        <mxCell id="0" />
        <mxCell id="1" parent="0" />
        <mxCell id="WmphfHFebU4Z3PJfOfqI-1" value="creator" style="shape=umlActor;verticalLabelPosition=bottom;verticalAlign=top;html=1;outlineConnect=0;" vertex="1" parent="1">
          <mxGeometry x="40" y="280" width="30" height="60" as="geometry" />
        </mxCell>
        <mxCell id="WmphfHFebU4Z3PJfOfqI-2" value="提取列表" style="rounded=0;whiteSpace=wrap;html=1;fillColor=#f5f5f5;fontColor=#333333;strokeColor=#666666;" vertex="1" parent="1">
          <mxGeometry x="210" y="210" width="70" height="180" as="geometry" />
        </mxCell>
        <mxCell id="WmphfHFebU4Z3PJfOfqI-3" value="" style="endArrow=classic;html=1;rounded=0;entryX=0;entryY=0.5;entryDx=0;entryDy=0;exitX=1;exitY=0.3333333333333333;exitDx=0;exitDy=0;exitPerimeter=0;" edge="1" parent="1" source="WmphfHFebU4Z3PJfOfqI-1" target="WmphfHFebU4Z3PJfOfqI-2">
          <mxGeometry width="50" height="50" relative="1" as="geometry">
            <mxPoint x="80" y="400" as="sourcePoint" />
            <mxPoint x="130" y="350" as="targetPoint" />
          </mxGeometry>
        </mxCell>
        <mxCell id="WmphfHFebU4Z3PJfOfqI-4" value="创建/修改/复制" style="edgeLabel;html=1;align=center;verticalAlign=middle;resizable=0;points=[];" vertex="1" connectable="0" parent="WmphfHFebU4Z3PJfOfqI-3">
          <mxGeometry x="0.0211" relative="1" as="geometry">
            <mxPoint as="offset" />
          </mxGeometry>
        </mxCell>
        <mxCell id="WmphfHFebU4Z3PJfOfqI-9" value="" style="rounded=0;whiteSpace=wrap;html=1;fillColor=#f9f7ed;strokeColor=#36393d;" vertex="1" parent="1">
          <mxGeometry x="490.4" y="210" width="90" height="180" as="geometry" />
        </mxCell>
        <mxCell id="WmphfHFebU4Z3PJfOfqI-10" value="预审核" style="text;html=1;strokeColor=none;fillColor=none;align=center;verticalAlign=middle;whiteSpace=wrap;rounded=0;" vertex="1" parent="1">
          <mxGeometry x="505.4" y="210" width="60" height="20" as="geometry" />
        </mxCell>
        <mxCell id="WmphfHFebU4Z3PJfOfqI-15" value="" style="group" vertex="1" connectable="0" parent="1">
          <mxGeometry x="610" y="490" width="112" height="40" as="geometry" />
        </mxCell>
        <mxCell id="WmphfHFebU4Z3PJfOfqI-13" value="" style="shape=image;verticalLabelPosition=bottom;labelBackgroundColor=default;verticalAlign=top;aspect=fixed;imageAspect=0;image=data:image/png,iVBORw0KGgoAAAANSUhEUgAAAFgAAABYCAYAAABxlTA0AAAMa2lDQ1BJQ0MgUHJvZmlsZQAASImVVwdYU8kWnluSkJDQAqFICb0J0quUEFoEAamCjZAEEkqMCUHFjooKrl1EsaKrIoquBZBFRezKotj7YkFlZV0sKIrKm5CArvvK9873zZ3/njnzn3Jn7r0DgGYvVyLJRbUAyBPnS+MjQphjU9OYpGeACHCgBWjAkMuTSVhxcdEAymD/d3l/EyCK/pqTguuf4/9VdPgCGQ8AZDzEGXwZLw/iJgDwjTyJNB8AokJvOTVfosBzIdaVwgAhXqPAWUq8W4EzlLhxwCYxng3xFQDUqFyuNAsAjftQzyzgZUEejc8Qu4j5IjEAmsMhDuQJuXyIFbEPz8ubrMDlENtBewnEMB7gk/EdZ9bf+DOG+LncrCGszGtA1EJFMkkud/r/WZr/LXm58kEfNrBRhdLIeEX+sIa3cyZHKTAV4i5xRkysotYQ94r4yroDgFKE8sgkpT1qzJOxYf0AA2IXPjc0CmJjiMPFuTHRKn1GpiicAzFcLeg0UT4nEWIDiBcLZGEJKput0snxKl9obaaUzVLpz3OlA34Vvh7Kc5JYKv43QgFHxY9pFAoTUyCmQGxVIEqOgVgDYmdZTkKUymZkoZAdM2gjlccr4reCOF4gjghR8mMFmdLweJV9SZ5sMF9sq1DEiVHhg/nCxEhlfbDTPO5A/DAX7IpAzEoa5BHIxkYP5sIXhIYpc8deCMRJCSqeXkl+SLxyLk6R5Map7HELQW6EQm8BsYesIEE1F0/Oh4tTyY9nSvLjEpVx4oXZ3FFxynjwFSAasEEoYAI5bBlgMsgGotauui54pxwJB1wgBVlAAJxUmsEZKQMjYnhNAIXgT4gEQDY0L2RgVAAKoP7LkFZ5dQKZA6MFAzNywDOI80AUyIX38oFZ4iFvyeAp1Ij+4Z0LGw/GmwubYvzf6we13zQsqIlWaeSDHpmag5bEMGIoMZIYTrTHjfBA3B+Phtdg2NxwH9x3MI9v9oRnhDbCY8INQjvhziRRkfSHKEeDdsgfrqpFxve1wG0gpyceggdAdsiMM3Aj4IR7QD8sPAh69oRatipuRVWYP3D/LYPvnobKjuxCRsn65GCy3Y8zNRw0PIdYFLX+vj7KWDOG6s0eGvnRP/u76vNhH/WjJbYYO4Sdw05iF7BGrA4wsRNYPdaCHVPgodX1dGB1DXqLH4gnB/KI/uFv8MkqKilzqXbpdPmsHMsXTMtXbDz2ZMl0qShLmM9kwa+DgMkR85yHM91c3NwAUHxrlK+vt4yBbwjCuPhNV/QOgAB+f39/4zddNNzrhxfC7f/sm872OHxN6ANwvpQnlxYodbjiQoBvCU240wyBKbAEdjAfN+AF/EEwCAOjQCxIBKlgIoxeCNe5FEwFM8E8UAxKwQqwFmwAW8B2sBvsAwdBHWgEJ8FZcAlcATfAPbh6OsBL0A3egz4EQUgIDaEjhogZYo04Im6IDxKIhCHRSDySiqQjWYgYkSMzkflIKbIK2YBsQ6qQX5CjyEnkAtKG3EEeIZ3IG+QTiqFUVBc1QW3QEagPykKj0ER0ApqFTkEL0QXoMrQcrUT3orXoSfQSegNtR1+iPRjA1DEGZo45YT4YG4vF0rBMTIrNxkqwMqwSq8Ea4HO+hrVjXdhHnIjTcSbuBFdwJJ6E8/Ap+Gx8Kb4B343X4qfxa/gjvBv/SqARjAmOBD8ChzCWkEWYSigmlBF2Eo4QzsC91EF4TyQSGURbojfci6nEbOIM4lLiJuJ+YhOxjfiE2EMikQxJjqQAUiyJS8onFZPWk/aSTpCukjpIvWrqamZqbmrhamlqYrUitTK1PWrH1a6qPVfrI2uRrcl+5FgynzydvJy8g9xAvkzuIPdRtCm2lABKIiWbMo9STqmhnKHcp7xVV1e3UPdVH6MuUp+rXq5+QP28+iP1j1QdqgOVTR1PlVOXUXdRm6h3qG9pNJoNLZiWRsunLaNV0U7RHtJ6NegazhocDb7GHI0KjVqNqxqvNMma1poszYmahZplmoc0L2t2aZG1bLTYWlyt2VoVWke1bmn1aNO1XbVjtfO0l2rv0b6g/UKHpGOjE6bD11mgs13nlM4TOka3pLPpPPp8+g76GXqHLlHXVpejm61bqrtPt1W3W09Hz0MvWW+aXoXeMb12BsawYXAYuYzljIOMm4xP+ib6LH2B/hL9Gv2r+h8MhhkEGwgMSgz2G9ww+GTINAwzzDFcaVhn+MAIN3IwGmM01Wiz0RmjrmG6w/yH8YaVDDs47K4xauxgHG88w3i7cYtxj4mpSYSJxGS9ySmTLlOGabBptuka0+OmnWZ0s0AzkdkasxNmfzD1mCxmLrOceZrZbW5sHmkuN99m3mreZ2FrkWRRZLHf4oElxdLHMtNyjWWzZbeVmdVoq5lW1VZ3rcnWPtZC63XW56w/2NjapNgssqmzeWFrYMuxLbSttr1vR7MLsptiV2l33Z5o72OfY7/J/ooD6uDpIHSocLjsiDp6OYocNzm2DScM9x0uHl45/JYT1YnlVOBU7fTImeEc7VzkXOf8aoTViLQRK0ecG/HVxdMl12WHyz1XHddRrkWuDa5v3BzceG4Vbtfdae7h7nPc691fezh6CDw2e9z2pHuO9lzk2ez5xcvbS+pV49XpbeWd7r3R+5aPrk+cz1Kf874E3xDfOb6Nvh/9vPzy/Q76/eXv5J/jv8f/xUjbkYKRO0Y+CbAI4AZsC2gPZAamB24NbA8yD+IGVQY9DrYM5gfvDH7Osmdls/ayXoW4hEhDjoR8YPuxZ7GbQrHQiNCS0NYwnbCksA1hD8MtwrPCq8O7IzwjZkQ0RRIioyJXRt7imHB4nCpO9yjvUbNGnY6iRiVEbYh6HO0QLY1uGI2OHjV69ej7MdYx4pi6WBDLiV0d+yDONm5K3K9jiGPixlSMeRbvGj8z/lwCPWFSwp6E94khicsT7yXZJcmTmpM1k8cnVyV/SAlNWZXSPnbE2FljL6UapYpS69NIaclpO9N6xoWNWzuuY7zn+OLxNyfYTpg24cJEo4m5E49N0pzEnXQonZCekr4n/TM3llvJ7cngZGzM6Oaxeet4L/nB/DX8TkGAYJXgeWZA5qrMF1kBWauzOoVBwjJhl4gt2iB6nR2ZvSX7Q05szq6c/tyU3P15annpeUfFOuIc8enJppOnTW6TOEqKJe1T/KasndItjZLulCGyCbL6fF34U98it5MvlD8qCCyoKOidmjz10DTtaeJpLdMdpi+Z/rwwvPDnGfgM3ozmmeYz5818NIs1a9tsZHbG7OY5lnMWzOmYGzF39zzKvJx5vxW5FK0qejc/ZX7DApMFcxc8WRixsLpYo1hafGuR/6Iti/HFosWtS9yXrF/ytYRfcrHUpbSs9PNS3tKLP7n+VP5T/7LMZa3LvZZvXkFcIV5xc2XQyt2rtFcVrnqyevTq2jXMNSVr3q2dtPZCmUfZlnWUdfJ17eXR5fXrrdavWP95g3DDjYqQiv0bjTcu2fhhE3/T1c3Bm2u2mGwp3fJpq2jr7W0R22orbSrLthO3F2x/tiN5x7mffX6u2mm0s3Tnl13iXe2743efrvKuqtpjvGd5NVotr+7cO37vlX2h++prnGq27WfsLz0ADsgP/PFL+i83D0YdbD7kc6jmsPXhjUfoR0pqkdrptd11wrr2+tT6tqOjjjY3+Dcc+dX5112N5o0Vx/SOLT9OOb7geP+JwhM9TZKmrpNZJ580T2q+d2rsqeunx5xuPRN15vzZ8LOnzrHOnTgfcL7xgt+Foxd9LtZd8rpU2+LZcuQ3z9+OtHq11l72vlx/xfdKQ9vItuNXg66evBZ67ex1zvVLN2JutN1Munn71vhb7bf5t1/cyb3z+m7B3b57c+8T7pc80HpQ9tD4YeXv9r/vb/dqP/Yo9FHL44TH957wnrx8Knv6uWPBM9qzsudmz6teuL1o7AzvvPLHuD86Xkpe9nUV/6n958ZXdq8O/xX8V0v32O6O19LX/W+WvjV8u+udx7vmnrieh+/z3vd9KOk17N390efjuU8pn573Tf1M+lz+xf5Lw9eor/f78/r7JVwpd+BXAIMNzcwE4M0uAGipANDhuY0yTnkWHBBEeX4dQOA/YeV5cUC8AKiBneI3nt0EwAHYbOZC7mAAFL/wicEAdXcfaiqRZbq7Kbmo8CRE6O3vf2sCAKkBgC/S/v6+Tf39X3bAYO8A0DRFeQZVCBGeGbaGKtCd1RPmgh9EeT79Lscfe6CIwAP82P8LEfWP479Q44MAAABsZVhJZk1NACoAAAAIAAQBGgAFAAAAAQAAAD4BGwAFAAAAAQAAAEYBKAADAAAAAQACAACHaQAEAAAAAQAAAE4AAAAAAAAAkAAAAAEAAACQAAAAAQACoAIABAAAAAEAAABYoAMABAAAAAEAAABYAAAAAI2qoRYAAAAJcEhZcwAAFiUAABYlAUlSJPAAAC3vSURBVHgBzZ15sGdHdd/77cu8N4tGo5E02lcQkhCgBSFhIZACIkQCl50ymGDWVLDj/JE4rjhVIRWHUJQrOAnGcQU7RQwEYwcMGAIIgeQIkBCS0AZoMRq0MBotw7yZeTNvf++X7+d7Tt97fzNPAqXiKrfm3dt9+ux9um93374/DVz8gad6pVf0b6CUsla4XXziYHn9i4bLZacNlV5PMCfqlYRbBnxxFlDWkFWKuiPzAfEVFPAG+ikrRq8nbZo6I6vq76b8Q8sD5b5dq+WrD6yV7z6+Ji2r/ei7VoZlSyYqB8pFJw2Vt18yUs47cbQMD4+UgcHB6s+K+HPdK1u7pa9wJPkR1QA6jZjZIwmfA9LHs69wJNER1c9D/sa1tbJt40rZNr0o1y6XOx6voWomZTjEqUDEyNvXnDMo546VsbGx1CTrXIKIBG7fzVAuAUZIi0O2LwmpJ68ZRxVtq/fK2tpAWV3rlZW1wbK80iur0gkYUU2CFdE9qMzQUFEQDJTRwVIUB2GCcf7f5ZvS+obS1m293pT2D0qJMf2dd0Ip18yultsfW5EirfxhoqNXpJ3CuSdGl582KKWHw1FmEoKEoBT5Lrhb22Ik9PBK88C5cMpKjUCLqwNlbrFX5paUX14r8q+cqgoQlTyGmUI56YivBzGCahW4j8jZ46OlTI4PlAndhzEpRcCjm/rkYwyIxkUrW/e87cdnL94xJF3kYHGBHZyGw4ZgCsTK/4xhYQAkrAK/6iZmP09CEr4jOg8uljI71ytL0gmWNVk5GOMkZOiG4TwNBkHU39ph8lfUSPNLvTJzUA4X3QY5eeOGImcPONJhRQpekXOcIawvBYDAs5f66qKwnv2D8tnkCLrpnw3QRUzUwYAFNwjJOYWcWtK91kCYlWQTIzh00LtZVVK/LEfOyQmH5Nj5BYaBRKrWgGeGMIYiUsjAHfChLiOErP/D+VEPBc/lg+J/aEGRPdwrU4rqSY141dmVa/A1hS4qpXzD28pAtwVkVfEs9huRamU8BIqfxLtEn6v1vvtCZYCbTB/IQoUgoGX2VzZ8llZ7Zf9ckcGK1uWicbWyJS7lGI23jlby1g5GSnJUOJzCoIcFhg9S3BjcYshAT4K72l5x6B0zh9bKgfmBMq4I2zQpZ8vhQzWkjShi5OYNkBNCgDtFpg9kLQRHLjhUJoLLusQYTLT4XyeCIQArCSiSTBjZpoQTPHZ1rVMtBs8cim67Is/0QBTMuMnc/AZaT4IT9WIgJ1Bl1FDQBXyDpsQskUu9aRQkA6Jvohnmql7rDSqqY0iiB02P68m/aagMa9x2qj0o0EMcFUnfAlIVE1UEiTBe1aMjXyjDa2JeowD/gNuXGuFi4JRS4ZrZ8GvXbaUs6KH19IFemdc9EMMtLQ9y0Ei+GHi6LVmwrO1EftB9TBpaj3AsLefGUj0zDA8nODZVNH3iIAE+6QXjzCqaJ8cjmkM7YTgDrrGhiPRz2g8lLIIfGekoRTQGqyKhAIzRogmzCqx35IpGRUM6YESsyOD9B9fKvkMac5U3y1SeKGKKBR4PKcZ8SijAdGvEU65eGfEsQLOZIcGHmJIZy7Q2QnxWpcCKxpoVPSyX9IBbXpW81TWVcXpEd8gyezdClc+Ub0n4jTvFNOxBF8zzBUOVqoH1HrBnsz8aO+jRWvNgFdJoR4X5dJg1sppMn1gX8rK4NFCemY2HGBFJw6GIReg2wONdhZ66LE6W78r4WK9s0Jg4Lk1w8jDdXHD+bFy/WICaALtSGe5w0rguh62uDpbFFc0mljXl0wNuUeM9I8zh8tVkfro3fkQeeCRnmpJpA9avSAcj6CqxDK7Ox36NwepakgTBekSB3M88SgmDi7xxUEPBM/vWNOWSgKzSyGfjG8ZYpEoWCNMTpWzaMKBJuqQqUnH5eunnkU+kMp4S7WOK/mkRrU5rxrKwpmeAHK35tYePlD82NuBGNW9Ukuj1pde6NCgVjFLC0v5Gd3yZVTT9MJxxsoJqnVQ7kZAaGR2YKOjqBzWX3TOLIRF9xqCbiqflJ2dETE0OlqOmWBR0Termu2p0ZD2LfIa1St3YKgBL1I2SNaWGZMp2QA9bjSCaqg2WLZI/kmtY298V2Zd//vLxk3VKw0MMGqrCnu8TQBtk6won8tUcEPVk1vRrz/6eVmNSRsYGjq4d5zIlmtA8dPOGwbJBd6G1eOke0wVxR4PKL5SI6q781M0UXfmBD5jZ58aJAf81DSB48GoFOtcWIVV6vvKTbzoXdnpGRytx73mMNOfm0jUn8i3FfnU/xlxWURFHzAgkhD4nIeDTbY+a1tRI80+Wr8Gj3imFVTYFzx+WupDIt/IrlyCJ2i5+yypldCpb7P/P8s1YF+zXTZsOIcqWO4QR2EkhX4CaCVcempdzNQ3j6R3tHBhG86VXRkcGynGb9QDTcJBSkrF45cDnea8rK0aV06IGcYVXXhW/1bViBKQ2BCXh9lWq8Lckv8pmOCDEhmN+ibJ6zBDajSsyn3a0NZrbag/0GY25KziXeiqVBnUPvfUQUbfcvqkz1gWKr+4z1eZ8IrT8Yz67onX0snoGO2uMnWvuEazA1EvUK0a09h/Rw3GIh2SmZFVLjSUGtGg2vBmm1pEfDFKjpGv16zZciqoSQVKqQQOphogqGcJI+JnxNDwX9TwIQWX/YEbDArteNIpxIZTh3GiwjeOlbN0kJ3SMV5WSMMTHrFVKzq5Z1Ri+98BaeXzPcnnkqdXy6NMr5cm9y2WfZM0urOoBqvmx+LHM3Tw1VLZvHiwnbhstpxw7Uk7YqrL+xtVjQgbMlbdCZp+XZ5cfugTac9lfta7MLYILySLxaAiGj5fKNZxrV68OaJkFPWT7tFs1q+EB4mhLGCuH4wSb0oNs60bt0dZlaGLZgGykqhxc6QUPPL5Y/s+98+V7P1osjz61Up7Zv+qdMe9YgiSVBzSx5hmBjujBfXREsqaHyglHD5ZzTh4vV5w7Xi584ViZZIOYFEKFmcPKOvKDWXAMInTqlYd2LZcfPLKkad9AedmZ42pEeEYzxDWwnbf9KptNW4sftVT24GBi5LepmpFsVcc6fuagTGNSCbX+6g4cxSlF7nY5lxUYVFy5N2xpAZei7tGnlsvHvjZbbrxrvvx0ljm0eoWVAE+OhKmyxubpqYJ7EqsY1S1qFffk3pWye2+v3LVzuXz+loPlxaeOlXe+brpc8oJxL1yeS7456tLR0MPRDXfOlf/8uX3lSc3rUeGlp42Vf/2WLeWMHXrDIy1sGBWd5BIXmxBNGhFspHBFLHuSHlYYl3xo1T0za1JAgKgK50Iq49nkptvGBko/bSNCzBC6Vzv/X7x1rvy3L+9TtDLUwCSZMtQgl/+oEphkmC72P3wEo72A0xDsL+/X383fpycslDddNlXe8dqNim5tgntqA0EyS1oYhHPNzWo8vW+l/OGXDpSdT7JJDWIpt9w/X/7spuHyL35psxYoMRXKqsSBL5AUEUpaXE63Q3DdUHHJFgWc7H5tkLAMNePKT3eyTMW2TrOXYBktTtXQktW4ivy7Hl4sH//6wfKNu+fKghYA6IKRwVdXAeAZHnUumJpHxVMB5+dI0CJEblYruE/eNFvu3rlQ3nPNxvIL523QgqOfl+WGcBFlnRz+2NMa/9WzuvJ5yP7VbXPlcg1BV14waeyGW5NptQi2WBTTVvNyOHQ17rQ2XXF2Pl7lmJ8ENrYJsFlvDlhAwJDUygyHAFsSjy9+d668709nylduP+TdNhCNa+9yabhqFVi56O56uAQ+I0QNyoBllwTRPCVXOPdp2Pj3n9pXPn7Dfj2YNdh3krlXESJTU6uWPWMCRuXD5O87uFr+8IsH9AwSY1DXTVHhYUz17Hkws0ojpZTHyA6lKsXOGydLWs8307i0GUEMDewpuD1oukwhCsPZ5eqVz337UPngn82Uh36y5I0Zayl5gQfvKh+I6FSGdljznM1Tg5ryDZWjNw5qRRivgMCyutYFzKCBYXDgrmFt32r56Fdny5989YA2/LHGqHnpyJc06E48ZrhccPqYHGPG5mFFVHnfzsXyv24+mA6D0WEp7a/y19TK6tQSIu+Yfcq3JHTW35oa/sA824MqhhfdEDhgUM2zTUb7BSOyoMkUWeaxpfDQ+MjnGW8zilRpiXYis4NwJhOPDZND5aSjR8ol54yWl54xVs4+YVSrQMZ2aaghhpejj2kqd+/Dy+VbP5wvDz22VA5oL2SZB68S10YN8aV8cG6tfOz6A174vPfvb/K9Yhk3CWgwpoBvvmK6PKBA2LMvAqTyRQQOvubiiXKidHTqChQfF2ugSr4cHNyrkSZKgeR5zbOg7b9wgWub6Nokw8cVUX3JElqp96jV6VpPzqxIeOVC5GB8QOiNx2wZKhedNV7+3ksnysWaATD9cnuaectvi3bJdhw9XC49e6K87aqN5X5N8WjAb+rh9qMnlrUfLBl6OsYpDxmczxKGqD/+8gFtNA2VX75iynPmlmt1TAxSF71wvLzyRRPlr2495Be0VU/wd2vWcsOd8+XXrhrxrmC6r3GBe15Hvh9LuAhFMBdR9flGi+3VZo5CzAzqlUAfVdfdpF2pgKWCiVrd+LS654c+s0/DwrKHmoCH6TZOLT0kL75cBr3lyilNrSbEUxyJ7GQcTqhSrIY0lFyBxjXuE+XnnDRSXnvRZPnCLYfKZ755SHNoVqVoCZ+ghWZBw9xHv7y/HK8GuvLF4x7HqwWthF7Zorn8G18xVW6+b0G7hNJXxKFHbH1+6/sL5RrJO/Yob0ZaKepJcY/5OuXOU6WKqMYpcjXvXfQrnyDDzz21DrMN5rxjfhBEXUsNW8bdUv7rl/aX2x/SiRcZa+e66wjT/3gEDJTrNJ364LuOLle9dIOcC6SVDx+TpNqUMcGyJDZk9rTXMVgu0Fz1t395c/nA24/SeM1OdAwPgRU9BWZPzqyWT37jQNn1DMNVxTHblBLyLzxrtLxcPWnAQ0+//fc/vlQefGy5T7fQpXIUfgalHexXzBUDG5z06kdjW1iBwkpcRMj24waGBlOnmUYwoTe3v/PDufK/v0MXo0cIR/8cVGJCD+GQyDu0IHj/rx1Vjjtq0DyDU/BIwXnrOCIUMlKIbOVPjOlM3SWT5X1vPaqccoyGmMTqyqen3v7gYvm6pok8fCsOmciH/DGtEt929ZROOAGNOKSx4bVHzxLm2ot+pCSHtB9TLW8wHmiEjJ5kgaSq4K4rC4u5xYQH51BAXW5M4ztLyEplogg1Z/dpSvS5W+bUQCEk+hiRAX9tBEnpX9E4+E/fsFlDjbiglVMrnwGrm2IG04GIpFIZmvKH1KuuvGCi/MZ1W8rRiuSmTjKqfHomw8lTP9VigvQs8s8/bbxcdDYb2LJDDYM8RhyC+jY10uxcPrThkfJDJyEkzwhNVYY5qk67FrVjRvRRjjFZUQS1wnBSmyq89klU2Et4shbw+1rDMzSwl+A6tAomPkN2yQsnyj+6erpMa3oXCHGzCcm08qPGoDqWwidTm2vlU0WjMUa+/eqN6hk4tpUPDXLo5td/jweMUqpxuHyOY73x0g3ioTgUD+xnJkOz3f/4shYl2UBmEUzSzMY3HkUppf4WhhK8OGSLkBRhrozKHBEa1/hLp029jOOL0BdFd8v9C+UpPW0DS0D+gSz6LRpn3/naqXLSMUxzkkOIiVIf06hoQZLZKLq+fOuhC6d4mGW88lxFYEd+2BpboH9x85xeJxGdQWU5rTABe+VCbfTs0MOMVGckdPg57fDd8aDerHaT+DTk5GW0fefWCQ8YnVZa9mqRtlJ000VMqT1YRTurHQDolboBMM4BdZtbfjDveTPLFEeiaCEnf+3Lp8rFmo71dflGK3MJQ8jqVXFvbqas7n2krDx+Z1l59M6ytueR0pufUR3Tvtrzgs5COhpNKhB+49rNZct0hAjy3UD0LNn48O6lctsDctKzyVcFs5oXnRqzWbvLTsTqgfLX9803vdQa2MjwSET8OueDQWRDh5M4JDqEn6SOHG0R6uFEtyMdppdhDz6+Un78ZIxNxBg4PY/xvXL0lsHylldP9W2SQxSSWn44f23mkbL88G1laeetpYdTl3GEOA5rlXX0yWXk1EvLyBmXlcGjThaHriaRTzPLmSeMlFedP1k+/+2D8facCseN8JRnTku9OmbDJbU23zHtu5570li54Y6FskKPNpmbqjyseff80lpsAAk7UjSmTxwJGVFKEKJYRASrLw6QkJi0h2Q0Y0rUKRoCVptuf2hBQldNkuO+COjaRXPPiXIyQ4NYdWOvHW4E1cC98pO7yvyNHymLt/6PsvbEfaW3pOVpj0MOitqlQ2V11/1l4dZPlLkbPlSWH7ldwtEtUuRi+ED+pB6obNKwGkzN6VjqlYF5z8NL2oJdCROrVjY97OetyUnbR7TRX3UWb5EyXMxojrxrb+dBJwmxnqDn2mzNtZGT79frkplDz8wirLeHDuEEiWYPOWUL+akY9UoiYeUGblYbTJ5TO6/VXJdIgWWDYfkVWw/W/bvK/M1/VJYfv7v0VjTXbDgpZ0LJh35tqazt/mFZuPEPNHzcHcItGZHJTzdOBZ11vN56aHGBrdSYnovS3gOr5fGnGTNISEOhMJ0skK0aYjZpBWhdtOkPBjMS7o/sVsN3kuM0MA31noYlCxi8JYIWRmYb3ypYmg6KiDldhaRb5lxkmxCBwBxDOJO8WLNXfLo2rCmHaRnDFAKgbrNSFr/50dJ7ZmerUkdAOIYIgjb0XN2/uyze+eelN7tHjNZPx24d1uoNxQleKJWBh24cN9g903VSKOPAi6zG8CE/nK07ttv+kP8IW5vdRLXKde6doymgcBw5zn0FxGDUUWI0ZhahbDSTFU4djH9A8969HIA2tjiokcgzyuzYOlKmtRCo+NS0+ZC2/Nh3y9KPvyteqslKRDmbhoVtSUudAGu7HyjLu+6RikTFkYl593Gbh70sD7aSJ8Y4kXeBz2hJ76RyaKJSIBo8NcF5DmRKFlXQUqPL7hwiunTUeQgS0NuV0WcETkJPR2AgbhDGn/Y21Rx2MHVOyVY3mO7XAiNehkY5tFAFu27azBmK2U5rRDBBG8E0c3ngRjWGIiLZcifrIu/jJJ+oI9nRqsHYtYWDZeWJ72uYZng6Mo1o2N+iXT92/8JNVQQPc+mtoAgZqXdlYaDm1Zr3T4yz+RTCAeNoqHhRS7u6hoqkcVmXGINpSmns/5yVISAqWqkCGRfkiKFSTWaTRvONBcRgtok83YV93No4/RhCQMjSXFn76SPCRShEwPOumxUSDAeB7jpdUuvSE23RuLx+irfRBEiQRi+LCNJ+i7xcg5/6JqV8FhxjGRwIdic2ko6NaT4cMwYrh3Z99g/GwT9xinqCWH8phlvNGyHh5DtZ9EAwoHZfA9NJYQxs/JAyLCiilqtoFX29lcVWNijQVPm6B0ddgQXzwAF1aUFOIq5qahEsjdBPUHVv1dnnk03W1lQu2E/kxol4GKQeysJ3lVNNFpD2CxbyQlu1qSqgQz6YqURSCQ4hJODVGFbeXCo33ZWmNVa5GyVD8rVbHVzkhWllHsKhMRvAw5r/8ac8El1jdUJ2CFxHPkxImh9XWWFEqyDqHJL8ujKFf52mEdUsraN3WaCYIb8m7FasG9QvH9Awg6zrUm83PgA862hXQXxtVMCTc1IpKGJikkvnBFf1qxrcN7MBr/HKDaUy3c7zQtE8o4cB452TWqePXoXBEe3PTm+PareeiJClP+vWKG51W/pkNLjpuDIwpAYySQDdziqz2c5Y6e/tjKBAyIjmbExd6VEVjJOpceVceRceeJqa5k+Zcb1lbhtWAPG1/WRFojEY9bEkCAESyG4rohdEWzmoVtQrICEEdlzNxdQ6xah9Bt6b4Qu0YJHidlR+l/YmWEbDzRpGzkVzGhwuo2e+MoQL3ynHzJBohgZHO8lYCFFY0Tu041xNtrUaUKrk2EHirQznJ9Dd1phQOdVzWmibppDPlsDhwc1mvZcPKiPfOondVtncCISJeCd7gb0OBhZeh5mdm3feCigLVfQRKbiqlmxgqqnRChZnb888Pj5itBZCxCTSU9roflA7UOaVUPPRJfjJT2e/qgwdc3riCK4x1U5CMfsG2WFA6CywGgGakR3nqSYcZZkpmNsT2pb8yR6tAlWg08KDBO9RbQqdoCnk+ils5XzxQQWH6cQEfd0DlOHIFmVStl/4BBGqCI3AQHh2YbYiGZPCnEAEmdUzJ9i7qS0JW4ULzlBXBwF6Oaa2Jsvvr2ndH+NwNTEMBd36DE2U8cveVQY3HQuoXz5l8UcnuiR50tDkUWXs3DeUgS0nWH7aZeOo57n3oF5g7vppLN8j/kI+wxcLoB3bMihadSBVCjz2tfmLagnG0JR/qncFwQ37LT9a0vgaolE5EGo06silJ+Vwoa46iTvbmCEorib1JbhcpNcsG/SwA8kQlMkC5894MUkK7KxzOQiGTnxJGb/07WVwy4lqJORLP0QJNWhism8e09vK2OXvLiNnvUo2KyoCzfd64Sunb+mFKK/sq6XBCN46d3bWmL6dy6gOAZXUd0B7tRDZq0OIVb4jNbmdelyN/qi1uVzS/ljYYwDJluhFpPzDeQRjKVRcnV5e0GcCCTBJ9wLeqdoYOftEhKohksaqKZJmDq3qVM9su88BVg3FVH9Aq5GRs64ok9f8qzJy5uXaPRsPcVytiPw+Mqa6V5YN172/jLzgKg2kPvVSq1OlCIQ92mvwe0HJxxLrgof0x9HXq18y5YCszdcISS4cTnxcw8tcvB8SNBqd+0YdKmePo6ZUT0XlZDvldc8HM0T4NLp9CZpUk0Kw5gwYn021E+/K3jw1VRsol50zUdil8oaRxSAwGub6O+bKq3X86NV6qwvf+honpMBLeEN6Jb797DL5+n9bVmce0+7Zvb6zyTy0ZUcZPOF83U/RrCGitmrg9hR5JLTVKk2N6tM4CeeGJaywzj1lVCcnIwL75JtBQBb0gPuhXnDytSrjntaNHmMZg89Q9PqsmvGlOShKHholCFnPej6YXbPipz6YUkkDMM5ADk/UMUd4RLcZw01/nE+7VEdIv/idobJzt7YBgXtUVggpHdDRoz+94YC2LYetYCJYGSPoQoB56iPGQ9rv5S+BRsGO7Fduvq583BdACVaWufnGDUPSOTdl5Bi+lBhVBL1FB0w4Akuyms5VUUDi45n7HtECCPUtyGDpt6Zt0MkgRCGSRdJ8qaFuXipXZZu7ECf0XS9nFpyyG0PKQ4Ov2nECyRgS7KIuOOYFJ42WVyiKcXbwpFY58WGidqf2jP+7jjPtbc55JTMYKlWx0LSpzbe5xOjIN6QyEOL2zUPqUeN+SYB8myLlX6LzFJefr0+QquKtoD7535dzORBIwv6qE/sTl+g8h3Xpykd2yuempTKkXBDuAgC/OR7SCidd4yD0Mlh4nJXgeH83NWxEwEnGN122wadzYiYcDVCXvby3+8Kts+X3/mJGK6yQ0OUVeVse9gOQgIAo78yzy6+YoE0ogt99zXS5Qpv9vA3Xc1PHsUbKe16/Uce+9JM5jeII6abQ+Qs63bPMaX4I5UgGHnbwztox6tP1laJhI9QMNwehXEhK1ekGWWJ9PqWvMPmIz7W6eB9WBIz3RHG8chdBp2FwBEqcr4PQb71quvyXv9zntyPSTRV1DjpQlvSw/Mw3Z7X4WCv/UgdGTtw2EmfcRG9UGCFTt5qQb0CDoxojd5HAbmmp4Xzbh//JtvKQZjAsdl6g8tFybnR5MEJi/22g/Egnkr71A+1xgIFoXWgQdvU45sXnYa18sFRndlzkBd3yEQiAykSiIGYbNcTM6G0N63C3ndDAoHxQBwKJVJaahydwmEf/6mumy/06nHf9HXX+WyMZPuIobb9+11x5WufWfuXKaZ3jHddX8HrzAM/qzC5zVcCb6kZsk2kRjWN4xeaYFY0eS2kwXWNvUUomEQUuEbX/U2eMD+nYbpNS/lF6w/GyM/WzO1qkrJeCLRLqD3KQ96ZFDPgmErNRdakNetjzqyQDric2hSyZ89p65QCHT/g0Uqx2VVctPFj+2Rs3ex/gNr3iRlXbIDSrpgtj+j07l8qjz8xoIaIDzuePl1ecO6EDfvq5gap/sA21uGaZDSS+6mceyyupWlHJkNIhNX29GKciCqkOf7X+B1p13ni3PkZBUxob1+gGyVnHj5YXnTwaNlQC35EmHHuYkNSpUEAQxQMgEEAi4QxeW7OWJ2rrhyhUsHGzV9/JTW7D6ZmaiLAugvfK6ZrKvPe6TeXpT6yWnbnIiOCEYchFcV4g3njPXPmOjusf+7UDhVM1FypKTtP7tGO02mI4YqrIV/yPPrVU7tY0kI9m+AKJYwDv1kn2kzXMVGXE0vI72lUtUzkwyAZGho7J59VwfOLwtJb37mnSMwKDt+pDPv3Jwb8jEvYrBWds+znOB09IZz6dmtWQkH03WlvMDml85htgDmA75Y18ZKW2MpeePV5+6xc3l/d/eqbs1r5AGI/DMCvnlRCp0Xjo7dy9Wh5+8qA/aoGeLUUWP+xqseT2QCNa7GH6tHPXIe01rPqcG0dbSVW+C4dfXNnBiKydCM/v/c2SG5ujC1kVOkuZbfo87XU6H9z8mEcYExKE7KJbAyW8XRksYost2VWuwsGw6QmNJd3RAy3gpDvv4JY0K2iSs/1lxuOrdO73fb+6pbxQv8fGA9nkoY6NgCUZbtFdk6MQV+VVZHBik55kz+peN1zg9m0thz/02X06mCePm29LHzkI+3MtJCkknIN9n755tuzS6o2EPtT6rss/0MGZ0/VtXiMiEIzFBZ3ouZW33WYcdb8A6l5rzZqTlNrn1fMBvCBXTpRQ8Js4OLnu9dpRoQ7yqoaOwtdoBffv3rZFh6wnPWWqD1WjpVBr0ZHvX5eyyl35okj50ILOAujLt8fnV+jTpMYBNdNGJY6oiVp6x6duOlBu0slLng2krvwzNdy99dXTtgUTW+o2Dyw3KU1vBzsXnlE2unUlIdr57o0fE2IFVM8H053tbDmGH79gCU2qZrhw2IXufsHp4z5e+o6rN/mDwaqknwHQ062sfDT44edzGRPgU+U3egrGr598Qd/Kfeyr+6VT5XyYEn0ati6mfa+/45C+2zuYU9N++aMaeX5dz5LtOmqLeLzre7o58sCQq7/0px3sLlkxGn0S4JvmxBqH+YMQZQCbh6wlejmNmUGYIhGUqWahU4tt1xvm9167UcNGfBLF4IfTzFM4oNN4lOMScUBjuyFAUEJ+XRxxPAvwnI4yfeqmQ+XzWsg0Q1fih2K1YBZmz0b87ZrlfFALn9ncluzK53Tl6162oVxxHvpaKxMHpyg3tqMTiv2s88HRfqEEV9bU2/QVZ537wcMTf0khsgfF0JEl3BAZV3PAMyTfeRO7Vj77zYPl5nvmw0mxnBRC232R37iCJ5ksgGOVQcEvBKplGdk4YJ82eP5I34V8Td9ueP/5MPmo4iQBjOn3/mi5/Ke/3F+ebPaM0STlS85pxw9pnj4VC4tKi/ya554yAiamjj5GMqxQJTeTREbELblBsoy9haOnNFVhE0vVNll3ZhrjuWliNrokmywa2URE1Ze+M1/++Cv65oy3BEKsTjO/jvzQQLpJ2brJXs/nhnzUDywUIgc59yf0DvA/6qF3413MvwUx34rbFh/QQuj3P7fXH0h6w+ww+VNaoLz5VRv9aZfZ1AZNWbo5VX9RjT3JJubyBjK+Am11UCEALYjVW2whswXIdiQPQL788VeeHfouDUyjQXuOqg9/fqY8rad1PAxwoNykgddBgHL6g75ukVbXUUZ7Ap7eAw51hAdXXmrWxlKVv8P4wKf36gXAVn9o42iqzFV/rw6K/86f7Cl/ow+/eabBj0tFQd61l06VX7pcnxJocwd/eJcPPMs0hUsJCh5RrTzTNOE4OuwBPBSGOWN0YAEPc/iJlp6+Exssp2wf1OdXbP21yrW45qRLKMET+qbvzZf3fXyvJ/D0TY+aKT9aAAfqj35LNuXX88lW13BdglqOkXtry8QTBcFOvPvgXdzvf3ZGX85r6Zme46cRvq4H2m/+wdPlQZwLu2p/ymcL4Eoda/3tf7jZJyuDo4Dg+mLtoxiVYap1UVYtjd7xW5tGiH0vstUw8o4TC6ekZH9FpPC0dzFq8hoQ65y1bMX+tVZpv6toYnOHKVYNNYIycDOGdPbC8lNRRzkhSzWYylqnwLKEQK2aJL2xZaRI7v3xcvnIF/aXh3VQj0/LPv6NWS169vk93XryRzT5f/k58YX9hgmNh+vYjzZIrFIpRwr59Cr0jGWPFUdzgEqmCtKIssrGtYFAFpKKrjspyrCOSiKMD0Y+/Ln9mrzHvirO6mlvIyblIrKHRCH5drPF0QrC4QEnXqkZXE3n4QMRipRwMPygQINWPgQ86PjmbXltb5nQiolPHA5oiY2OFtWRD+BCvaf757+oL5X0+ut520+LiZ85K+sf5IjX3XXJioKoWO22CoZhKMl1Ce7WUhfltvIhbZr83p/P+M2uZQsnxtDEETP/UJ2U8pTLjaw63W13w7HyJCpVR6WdizapE45lEFbEgR01oROfbH1LTqbEtCxda6Su/JecMVr+jT4DO0N7IB5xUj4yqnXwRQwpb1GgbEAr/4jfD64kNu5w6mTj6ZkNsS1HCAFNNuhTguXyWx/9ablfr82rtUSYV+jaCOFMQ4hIV+jWQADJQviQwDNIgPqwc09QBXXQUY/eQSIo78wNDGLPEkR0uHwox7SZ9IoXjZf/8I6t2lxiWDBTXY5Mz2k/8q0sitXtyuQGYSgnpiD1pVoDYVaSTZyuPuT5mZjf/eSM7ksZiSBCQK3+xMNZoPaK6pAP3LDDbFQdYv2kSBwMAZfE4FIbBxiWMLpAQ0NEgqBfPvVbdRrp2pdvKP/4mk1lK84lQdeXoCPBIyvJBhCLIiXMizcBvV1pl/PEUqoELkDVACLTBzJbwQW0zKzkUPP1OmTCPq+TIwl6PVXFsNobUYcjNIFStILROJu8EJvnC29D3BAWlwYxuImWMJUCMXSEnr5GNiOZwpHyTz12uLzndRvL1Rdu0O9eVAKhkvqMjbo+UEVAfMVPBJd1iTG4UbwTwRCA1c8xGFHnZDZ2gjtotixfIbHjxO+l8WMeIEQVToBtZZpRJ096Z0zwnpyNI42H02kNi4EPQungoSeDDQ9R6s2TIUeygIVmSbKOfGYKr71wovzmdZvLyduH/XMJcK+akTeTPkCAXNcg2Dxdqh798v9Wfj8YZ15z8aR3uD70Gc179eNCzINrwvxwAG5RFIqA3SvoHKVd7+Bs42NpJLu3Og0wTyOVsREXuTFVCDentCTnbTCHY96pqH3DxVP+LM3iqJesqhmcnAg+a5sMal7yahZ5UIJRsVGG4U5DeyoGUmB20ZK5bubGnSSa5N8FhwhVSAw/oHHdKzaU0xTJn/j6gfJtTY149wYteKbXhXj0J7vIhtSORk17LXWioptCPpB2SElimNjT4g1PcMRuXBtVZx43XK7Q4uHaSyf9aVbzPlH1YQ+0SWBlTM1FKXjV/LPaj7AqXzSaBwsgRWz0elQWCNsmYxldcSGUa0CbOBDJeaeNlN958xa9JVgs39DPd92oDR7O6sbyCRIND3aEkFMEx2SjsVxtJ0a3B16lZAadlYhXxndHkkC2U2L4dOEizWtf85JJ/9QXYy6/UZyqmpZ8cFHRmabU6NTJmKaDETwqVPpUN+JnjcHqntIGgvWIAjktT1ZRShhcMlKqpMonwPw46JANvFTToHfoO+UbtAHzpdsO6VNWLVP5JSvLDyq4NkmgKEs/MYtNH80XDBQM5ar8iqsysc8vqPyCPkB8k/YRztRLSn7qNk5atRLIuSFEq3/rpudtP7aYMTzVk+GMovXrAAzhfxIyZG1wPKL1l0RkGphq6rQK7aqtVXGTUqGEs9kYOuuEMf2NlndpDHxol959fW+h3Krf3nlCwwdnLdi4969ZK/r45oLHoF0m5h4OkC9mROuA+jgPVF6I8vE3P5/74tNGy1Xau32ZFgz8mJJ1twb1gj1hDDl09L1W9907tv4M+/HZwTwYaZ/YGYpg80uZeP7bO1fLa85ZSQdjXCognI5ajRqtcmF4F79BOiITvzlxvg7fnX/KWPl1bb7zg0m7+L1K/TAcP+PC78Af0nJ2QRv53tMVY0eT7rwE5csfzmVwgGSHPjQ8VePrDv1QEbtejADPnapdjbZhW1tM8oqn4s+wf0Vfpd73BDuEQk3nktc8OFqJO78N+eUfrpZj9D8+Ou9EVep/H8PPF4BYk/GInmBVwXkPzC5+VAA50urAW/Mx/uP1Kub4oziGGkdRYxiQU4lcIfpH9c2s1Rgt2Ozv56z6IxR4bvnBIfj2GRvK94EOt5/IXdEXqvdptfqVB3ieQERrEHBEMGGRMCz57mPqm2WpvF4fFfp/d4alRllfySCOaz9GdURi9FWqEINbM6y0fPoQhaeav8Py+d+d3Zv/u7Pb/b87wxIpLV8SuuueD7790bVy+6PsfClOZRz2gc5A7Wm0msYPGEKrkyhGe0EEe5VBqTyU98PKoqMuxlX6w+G9IgmRK3lW18yVM/vEVx5MUshHqkX6Tq05EU7Jkhv9ktkKr8Io1zlIEhlSNQpYUFX7UcK9GHGqotaSEUOd7pTZNHQlKCDVO8MFEJR20r1hKIC3EQWzG22x8pYAkCdU3AyqMiikx1VtBTCMvAkSAgoPinSN69DDvHTBtL6GsXwqLEA6Q6n/zBiY/oDBRKoZCycEZ8v3uGl8XXwP+4VS2QofrpFiGzVR4QQz/YFBI5CQ76UyXgRsBiHVeSiCYa3THYAZiYHuxoBeBbWWd8iobxNA4UFDljp/vSQDRFcfCIEvBKVwXkBMbIaSYdqAO5/K2HEAINcTjiyokQBSinrvedjziaRqL2lMEPKhC8vj6ogUcwcTlUKzfOMBIKDMwPKBkLD5yPPBQgxZaZAK4QSgEiEqlwMrca1+aErjyQDzIIsU/bOZdgiCcULguF4IGBE6JqWNCANrIwSPaOzQMq9UkCBN+egAGCk0GLyDW+C5UahHN3S0cBgETyhDn6Dzj4VaZ9XbPjMUfiRYVPkhWRykgGaQpNRQynGKEmPtfoFNCIZRkhQHZZ3hiRR5+KmeF5AKjbrTBUEsAUKWzWAVBzpJPLyxk/JhWX/KJkTjKnhQEXzdUFYEBqFbqAKCWRoOAbxxZLaxIEw/kC9cI+dN8gMqOI0VrIySF0epxSZpBIlQq8xsLHShdwQXrrS0KqGLKFUm/GFB1CStKiKFDK6gxN0kdhQtpooquLEOPgKqv1b2zhg3uWj6E+zAkF7huYQ1t5QIIXRVPvg4HMGihoXK0UDAyNnjYJjWGWgIDEDZcGAG15AQ+CAcliwj5XPDPsnwnLwqgL+po8oGGTGIBEJC1Es3CHG2+TbXcIpXWaogSkJPKQ5ik1A6zDV3GFkhSpYeApCWjgU7pRuF6CUTbPMqIWZl7mCLSgAwSY5gSsILenBEyz83QMYbyLla8UMY9pUJfLLtQ2rwCFmqABUluMt+xVnSClhbHaEgYXM1wfbbS4KHjtGlU3AoSoX/uXcRJTg75bkiujVZdUSGEKsSOjR46OQC0hNDN8uwpcoB5q8j31nRUUcTQgsMVuSaXgkUJBnl4TDlxd5yMLZ88wHPqI3AbHP7x6wSASeTgoPiVy3xfwHRoAearsugjwAAAABJRU5ErkJggg==;" vertex="1" parent="WmphfHFebU4Z3PJfOfqI-15">
          <mxGeometry width="40" height="40" as="geometry" />
        </mxCell>
        <mxCell id="WmphfHFebU4Z3PJfOfqI-14" value="中台消息" style="text;html=1;strokeColor=none;fillColor=none;align=center;verticalAlign=middle;whiteSpace=wrap;rounded=0;" vertex="1" parent="WmphfHFebU4Z3PJfOfqI-15">
          <mxGeometry x="52" y="5" width="60" height="30" as="geometry" />
        </mxCell>
        <mxCell id="WmphfHFebU4Z3PJfOfqI-17" value="" style="shape=flexArrow;endArrow=classic;html=1;rounded=0;" edge="1" parent="1">
          <mxGeometry width="50" height="50" relative="1" as="geometry">
            <mxPoint x="660.6" y="420" as="sourcePoint" />
            <mxPoint x="660.6" y="470" as="targetPoint" />
          </mxGeometry>
        </mxCell>
        <mxCell id="WmphfHFebU4Z3PJfOfqI-18" value="" style="endArrow=classic;html=1;rounded=0;exitX=1;exitY=0.25;exitDx=0;exitDy=0;entryX=0;entryY=0.25;entryDx=0;entryDy=0;" edge="1" parent="1" source="WmphfHFebU4Z3PJfOfqI-2" target="WmphfHFebU4Z3PJfOfqI-9">
          <mxGeometry width="50" height="50" relative="1" as="geometry">
            <mxPoint x="140" y="480" as="sourcePoint" />
            <mxPoint x="190" y="430" as="targetPoint" />
          </mxGeometry>
        </mxCell>
        <mxCell id="WmphfHFebU4Z3PJfOfqI-19" value="创建审核" style="edgeLabel;html=1;align=center;verticalAlign=middle;resizable=0;points=[];" vertex="1" connectable="0" parent="WmphfHFebU4Z3PJfOfqI-18">
          <mxGeometry x="-0.0176" y="1" relative="1" as="geometry">
            <mxPoint as="offset" />
          </mxGeometry>
        </mxCell>
        <mxCell id="WmphfHFebU4Z3PJfOfqI-20" value="" style="endArrow=classic;html=1;rounded=0;exitX=0;exitY=0.75;exitDx=0;exitDy=0;entryX=1;entryY=0.75;entryDx=0;entryDy=0;" edge="1" parent="1" source="WmphfHFebU4Z3PJfOfqI-9" target="WmphfHFebU4Z3PJfOfqI-2">
          <mxGeometry width="50" height="50" relative="1" as="geometry">
            <mxPoint x="200" y="460" as="sourcePoint" />
            <mxPoint x="250" y="410" as="targetPoint" />
          </mxGeometry>
        </mxCell>
        <mxCell id="WmphfHFebU4Z3PJfOfqI-21" value="回调" style="edgeLabel;html=1;align=center;verticalAlign=middle;resizable=0;points=[];" vertex="1" connectable="0" parent="WmphfHFebU4Z3PJfOfqI-20">
          <mxGeometry x="0.0681" y="-1" relative="1" as="geometry">
            <mxPoint as="offset" />
          </mxGeometry>
        </mxCell>
        <mxCell id="WmphfHFebU4Z3PJfOfqI-22" value="消息/回调" style="text;html=1;align=center;verticalAlign=middle;resizable=0;points=[];autosize=1;strokeColor=none;fillColor=none;" vertex="1" parent="1">
          <mxGeometry x="666" y="430" width="70" height="20" as="geometry" />
        </mxCell>
        <mxCell id="WmphfHFebU4Z3PJfOfqI-28" value="" style="edgeStyle=orthogonalEdgeStyle;rounded=0;orthogonalLoop=1;jettySize=auto;html=1;" edge="1" parent="1" source="WmphfHFebU4Z3PJfOfqI-23" target="WmphfHFebU4Z3PJfOfqI-24">
          <mxGeometry relative="1" as="geometry" />
        </mxCell>
        <mxCell id="WmphfHFebU4Z3PJfOfqI-29" value="周期性" style="edgeLabel;html=1;align=center;verticalAlign=middle;resizable=0;points=[];" vertex="1" connectable="0" parent="WmphfHFebU4Z3PJfOfqI-28">
          <mxGeometry x="-0.03" relative="1" as="geometry">
            <mxPoint as="offset" />
          </mxGeometry>
        </mxCell>
        <mxCell id="WmphfHFebU4Z3PJfOfqI-23" value="Timer" style="rounded=0;whiteSpace=wrap;html=1;fillColor=#f5f5f5;strokeColor=#666666;fontColor=#333333;" vertex="1" parent="1">
          <mxGeometry x="210" y="120" width="370" height="40" as="geometry" />
        </mxCell>
        <mxCell id="WmphfHFebU4Z3PJfOfqI-24" value="Extract Task" style="rounded=0;whiteSpace=wrap;html=1;fillColor=#f5f5f5;strokeColor=#666666;fontColor=#333333;" vertex="1" parent="1">
          <mxGeometry x="210" y="40" width="370" height="40" as="geometry" />
        </mxCell>
        <mxCell id="WmphfHFebU4Z3PJfOfqI-25" value="" style="shape=flexArrow;endArrow=classic;html=1;rounded=0;" edge="1" parent="1">
          <mxGeometry width="50" height="50" relative="1" as="geometry">
            <mxPoint x="250" y="205" as="sourcePoint" />
            <mxPoint x="250" y="165" as="targetPoint" />
          </mxGeometry>
        </mxCell>
        <mxCell id="WmphfHFebU4Z3PJfOfqI-27" value="查询" style="text;html=1;strokeColor=none;fillColor=none;align=center;verticalAlign=middle;whiteSpace=wrap;rounded=0;" vertex="1" parent="1">
          <mxGeometry x="260" y="180" width="50" height="20" as="geometry" />
        </mxCell>
        <mxCell id="WmphfHFebU4Z3PJfOfqI-30" value="Spark Task(5min)" style="rounded=0;whiteSpace=wrap;html=1;fillColor=#ffcccc;strokeColor=#36393d;" vertex="1" parent="1">
          <mxGeometry x="210" y="-40" width="370" height="40" as="geometry" />
        </mxCell>
        <mxCell id="WmphfHFebU4Z3PJfOfqI-32" value="" style="endArrow=classic;html=1;rounded=0;exitX=0.25;exitY=0;exitDx=0;exitDy=0;entryX=0.25;entryY=1;entryDx=0;entryDy=0;" edge="1" parent="1" source="WmphfHFebU4Z3PJfOfqI-24" target="WmphfHFebU4Z3PJfOfqI-30">
          <mxGeometry width="50" height="50" relative="1" as="geometry">
            <mxPoint x="120" y="50" as="sourcePoint" />
            <mxPoint x="170" as="targetPoint" />
          </mxGeometry>
        </mxCell>
        <mxCell id="WmphfHFebU4Z3PJfOfqI-33" value="轮训" style="edgeLabel;html=1;align=center;verticalAlign=middle;resizable=0;points=[];" vertex="1" connectable="0" parent="WmphfHFebU4Z3PJfOfqI-32">
          <mxGeometry x="0.04" y="-2" relative="1" as="geometry">
            <mxPoint as="offset" />
          </mxGeometry>
        </mxCell>
        <mxCell id="WmphfHFebU4Z3PJfOfqI-34" value="" style="endArrow=classic;html=1;rounded=0;exitX=0.75;exitY=1;exitDx=0;exitDy=0;entryX=0.75;entryY=0;entryDx=0;entryDy=0;" edge="1" parent="1" source="WmphfHFebU4Z3PJfOfqI-30" target="WmphfHFebU4Z3PJfOfqI-24">
          <mxGeometry width="50" height="50" relative="1" as="geometry">
            <mxPoint x="630" y="20" as="sourcePoint" />
            <mxPoint x="680" y="-30" as="targetPoint" />
          </mxGeometry>
        </mxCell>
        <mxCell id="WmphfHFebU4Z3PJfOfqI-35" value="CallBack" style="edgeLabel;html=1;align=center;verticalAlign=middle;resizable=0;points=[];" vertex="1" connectable="0" parent="WmphfHFebU4Z3PJfOfqI-34">
          <mxGeometry x="-0.12" y="2" relative="1" as="geometry">
            <mxPoint as="offset" />
          </mxGeometry>
        </mxCell>
        <mxCell id="WmphfHFebU4Z3PJfOfqI-36" value="" style="endArrow=classic;html=1;rounded=0;exitX=0;exitY=0;exitDx=0;exitDy=0;entryX=0;entryY=0.5;entryDx=0;entryDy=0;" edge="1" parent="1" source="WmphfHFebU4Z3PJfOfqI-2" target="WmphfHFebU4Z3PJfOfqI-24">
          <mxGeometry width="50" height="50" relative="1" as="geometry">
            <mxPoint x="90" y="150" as="sourcePoint" />
            <mxPoint x="140" y="100" as="targetPoint" />
            <Array as="points">
              <mxPoint x="180" y="180" />
              <mxPoint x="170" y="130" />
              <mxPoint x="180" y="90" />
            </Array>
          </mxGeometry>
        </mxCell>
        <mxCell id="WmphfHFebU4Z3PJfOfqI-37" value="一次性" style="edgeLabel;html=1;align=center;verticalAlign=middle;resizable=0;points=[];" vertex="1" connectable="0" parent="WmphfHFebU4Z3PJfOfqI-36">
          <mxGeometry x="0.2145" relative="1" as="geometry">
            <mxPoint as="offset" />
          </mxGeometry>
        </mxCell>
        <mxCell id="WmphfHFebU4Z3PJfOfqI-40" value="" style="rounded=0;whiteSpace=wrap;html=1;fillColor=#f9f7ed;strokeColor=#36393d;" vertex="1" parent="1">
          <mxGeometry x="770" y="210" width="90" height="180" as="geometry" />
        </mxCell>
        <mxCell id="WmphfHFebU4Z3PJfOfqI-42" value="平台审核" style="text;html=1;strokeColor=none;fillColor=none;align=center;verticalAlign=middle;whiteSpace=wrap;rounded=0;" vertex="1" parent="1">
          <mxGeometry x="785" y="210" width="60" height="20" as="geometry" />
        </mxCell>
        <mxCell id="WmphfHFebU4Z3PJfOfqI-43" value="组织架构" style="rounded=0;whiteSpace=wrap;html=1;" vertex="1" parent="1">
          <mxGeometry x="505.4" y="264.5" width="60" height="71" as="geometry" />
        </mxCell>
        <mxCell id="WmphfHFebU4Z3PJfOfqI-47" value="" style="endArrow=classic;html=1;rounded=0;entryX=0;entryY=0.25;entryDx=0;entryDy=0;exitX=1;exitY=0.25;exitDx=0;exitDy=0;" edge="1" parent="1" source="WmphfHFebU4Z3PJfOfqI-39" target="WmphfHFebU4Z3PJfOfqI-40">
          <mxGeometry width="50" height="50" relative="1" as="geometry">
            <mxPoint x="590" y="260" as="sourcePoint" />
            <mxPoint x="630" y="259.96000000000004" as="targetPoint" />
          </mxGeometry>
        </mxCell>
        <mxCell id="WmphfHFebU4Z3PJfOfqI-58" value="创建" style="edgeLabel;html=1;align=center;verticalAlign=middle;resizable=0;points=[];" vertex="1" connectable="0" parent="WmphfHFebU4Z3PJfOfqI-47">
          <mxGeometry x="-0.1417" y="-1" relative="1" as="geometry">
            <mxPoint x="-1" as="offset" />
          </mxGeometry>
        </mxCell>
        <mxCell id="WmphfHFebU4Z3PJfOfqI-48" value="" style="group" vertex="1" connectable="0" parent="1">
          <mxGeometry x="632" y="210" width="90" height="180" as="geometry" />
        </mxCell>
        <mxCell id="WmphfHFebU4Z3PJfOfqI-39" value="" style="rounded=0;whiteSpace=wrap;html=1;fillColor=#f9f7ed;strokeColor=#36393d;" vertex="1" parent="WmphfHFebU4Z3PJfOfqI-48">
          <mxGeometry width="90" height="180" as="geometry" />
        </mxCell>
        <mxCell id="WmphfHFebU4Z3PJfOfqI-11" value="拆单" style="rounded=0;whiteSpace=wrap;html=1;" vertex="1" parent="WmphfHFebU4Z3PJfOfqI-48">
          <mxGeometry x="15" y="47" width="60" height="30" as="geometry" />
        </mxCell>
        <mxCell id="WmphfHFebU4Z3PJfOfqI-38" value="免审" style="rounded=0;whiteSpace=wrap;html=1;" vertex="1" parent="WmphfHFebU4Z3PJfOfqI-48">
          <mxGeometry x="15" y="120" width="60" height="30" as="geometry" />
        </mxCell>
        <mxCell id="WmphfHFebU4Z3PJfOfqI-41" value="数据审核" style="text;html=1;strokeColor=none;fillColor=none;align=center;verticalAlign=middle;whiteSpace=wrap;rounded=0;" vertex="1" parent="WmphfHFebU4Z3PJfOfqI-48">
          <mxGeometry x="15" width="60" height="20" as="geometry" />
        </mxCell>
        <mxCell id="WmphfHFebU4Z3PJfOfqI-49" value="" style="endArrow=classic;html=1;rounded=0;entryX=1;entryY=0.75;entryDx=0;entryDy=0;exitX=0;exitY=0.75;exitDx=0;exitDy=0;" edge="1" parent="1" source="WmphfHFebU4Z3PJfOfqI-39" target="WmphfHFebU4Z3PJfOfqI-9">
          <mxGeometry width="50" height="50" relative="1" as="geometry">
            <mxPoint x="590" y="260" as="sourcePoint" />
            <mxPoint x="642" y="259.96000000000004" as="targetPoint" />
          </mxGeometry>
        </mxCell>
        <mxCell id="WmphfHFebU4Z3PJfOfqI-51" value="回调" style="edgeLabel;html=1;align=center;verticalAlign=middle;resizable=0;points=[];" vertex="1" connectable="0" parent="WmphfHFebU4Z3PJfOfqI-49">
          <mxGeometry x="-0.0775" y="1" relative="1" as="geometry">
            <mxPoint as="offset" />
          </mxGeometry>
        </mxCell>
        <mxCell id="WmphfHFebU4Z3PJfOfqI-50" value="" style="endArrow=classic;html=1;rounded=0;exitX=0;exitY=0.75;exitDx=0;exitDy=0;entryX=1;entryY=0.75;entryDx=0;entryDy=0;" edge="1" parent="1" source="WmphfHFebU4Z3PJfOfqI-40" target="WmphfHFebU4Z3PJfOfqI-39">
          <mxGeometry width="50" height="50" relative="1" as="geometry">
            <mxPoint x="642" y="355" as="sourcePoint" />
            <mxPoint x="740" y="290" as="targetPoint" />
          </mxGeometry>
        </mxCell>
        <mxCell id="WmphfHFebU4Z3PJfOfqI-52" value="回调" style="edgeLabel;html=1;align=center;verticalAlign=middle;resizable=0;points=[];" vertex="1" connectable="0" parent="WmphfHFebU4Z3PJfOfqI-50">
          <mxGeometry x="-0.225" relative="1" as="geometry">
            <mxPoint x="-2" as="offset" />
          </mxGeometry>
        </mxCell>
        <mxCell id="WmphfHFebU4Z3PJfOfqI-56" value="" style="endArrow=classic;html=1;rounded=0;entryX=0;entryY=0.25;entryDx=0;entryDy=0;exitX=1;exitY=0.25;exitDx=0;exitDy=0;" edge="1" parent="1" source="WmphfHFebU4Z3PJfOfqI-9" target="WmphfHFebU4Z3PJfOfqI-39">
          <mxGeometry width="50" height="50" relative="1" as="geometry">
            <mxPoint x="732" y="265" as="sourcePoint" />
            <mxPoint x="780" y="265" as="targetPoint" />
          </mxGeometry>
        </mxCell>
        <mxCell id="WmphfHFebU4Z3PJfOfqI-57" value="创建" style="edgeLabel;html=1;align=center;verticalAlign=middle;resizable=0;points=[];" vertex="1" connectable="0" parent="WmphfHFebU4Z3PJfOfqI-56">
          <mxGeometry x="0.0775" relative="1" as="geometry">
            <mxPoint x="-4" as="offset" />
          </mxGeometry>
        </mxCell>
        <mxCell id="WmphfHFebU4Z3PJfOfqI-59" value="平台&lt;br&gt;负责人" style="rounded=0;whiteSpace=wrap;html=1;" vertex="1" parent="1">
          <mxGeometry x="785" y="281.5" width="60" height="30" as="geometry" />
        </mxCell>
      </root>
    </mxGraphModel>
  </diagram>
</mxfile>
